# xmcd
#
# Track frame offsets:
# 182
# 17590
# 37847
# 53300
# 81087
# 88350
# 103700
# 121370
# 138827
# 157395
#
# Disc length: 2344 seconds
#
# Revision: 1
# Processed by: cddbd v1.5.1PL0 Copyright (c) Steve Scherf et al.
# Submitted via: CedeCatalogueitor 2.6.0.6 http://personales.ya.com/cdcatalogueitor
#
DISCID=7709260a
DTITLE=Los Sabandeños - Americanarias
DYEAR=1989
DGENRE=
TTITLE0=Como Pajaros En El Aire
TTITLE1=Canarios De San Antonio De Santa Cruz
TTITLE2=La Flor De La Canela
TTITLE3=Navidad Canaria, El Nacimiento, Señora Santa Ana, Al Arroro 
TTITLE4=Tajarajara Tajaraste
TTITLE5=Isa De Candidito
TTITLE6=Corre Caballito
TTITLE7=Maria Va
TTITLE8=El Tunante Lagunero
TTITLE9=A Don Rosa Toledo
EXTD=
EXTT0=
EXTT1=
EXTT2=
EXTT3=
EXTT4=
EXTT5=
EXTT6=
EXTT7=
EXTT8=
EXTT9=
PLAYORDER=
